<?xml version="1.0" standalone="no"?>
<!DOCTYPE svg PUBLIC "-//W3C//DTD SVG 20010904//EN"
 "http://www.w3.org/TR/2001/REC-SVG-20010904/DTD/svg10.dtd">
<svg version="1.0" xmlns="http://www.w3.org/2000/svg"
 width="320.000000pt" height="320.000000pt" viewBox="0 0 320.000000 320.000000"
 preserveAspectRatio="xMidYMid meet">
<metadata>
Created by potrace 1.14, written by Peter Selinger 2001-2017
</metadata>
<g transform="translate(0.000000,320.000000) scale(0.100000,-0.100000)"
fill="#000000" stroke="none">
<path d="M1400 3180 c-25 -4 -63 -11 -85 -14 -207 -34 -464 -142 -647 -273
-101 -72 -268 -234 -343 -333 -145 -191 -243 -409 -296 -660 -18 -84 -23 -139
-23 -280 -1 -200 4 -255 39 -397 151 -624 653 -1091 1290 -1202 152 -26 426
-23 572 7 674 138 1179 667 1278 1341 22 151 15 399 -15 540 -51 242 -149 458
-298 656 -66 89 -246 261 -345 332 -174 122 -399 220 -615 265 -105 21 -426
33 -512 18z"/>
</g>
</svg>
